<svg width="16" height="16" xmlns="http://www.w3.org/2000/svg" class="bi bi-question-square-fill" fill="currentColor">

 <g>
  <title>Layer 1</title>
  <path fill="#96968c" id="svg_1" d="m2,0a2,2 0 0 0 -2,2l0,12a2,2 0 0 0 2,2l12,0a2,2 0 0 0 2,-2l0,-12a2,2 0 0 0 -2,-2l-12,0zm3.496,6.033a0.237,0.237 0 0 1 -0.24,-0.247c0.094,-1.695 1.481,-2.286 2.749,-2.286c1.396,0 2.672,0.73 2.672,2.24c0,1.08 -0.635,1.594 -1.244,2.057c-0.737,0.559 -1.01,0.768 -1.01,1.486l0,0.105a0.25,0.25 0 0 1 -0.25,0.25l-0.81,0a0.25,0.25 0 0 1 -0.25,-0.246l-0.004,-0.217c-0.038,-0.927 0.495,-1.498 1.168,-1.987c0.59,-0.444 0.965,-0.736 0.965,-1.371c0,-0.825 -0.628,-1.168 -1.314,-1.168c-0.803,0 -1.253,0.478 -1.342,1.134c-0.018,0.137 -0.128,0.25 -0.266,0.25l-0.825,0l0.001,0zm2.325,6.443c-0.584,0 -1.009,-0.394 -1.009,-0.927c0,-0.552 0.425,-0.94 1.01,-0.94c0.609,0 1.028,0.388 1.028,0.94c0,0.533 -0.42,0.927 -1.029,0.927z"/>
 </g>
</svg>